<svg id="Слой_1" data-name="Слой 1" xmlns="http://www.w3.org/2000/svg" width="181.3mm" height="183.42mm" viewBox="0 0 513.93 519.93">
  <defs>
    <style>
      .cls-1 {
        fill: #fff;
      }
    </style>
  </defs>
  <title>doneInactive</title>
  <g>
    <path class="cls-1" d="M515,521H1V1H515Zm-258.4-9.37c140.34-.91,254.55-111.68,254.76-254.45C511.54,116.77,399.68,3,257.44,2.66,116.5,2.34,2.79,114.7,2.66,256.82,2.54,398,115.05,510.07,256.56,511.6Z" transform="translate(-1.04 -1.04)"/>
    <path d="M256.56,511.6C115.05,510.07,2.54,398,2.66,256.82,2.79,114.7,116.5,2.34,257.44,2.66,399.68,3,511.54,116.77,511.33,257.15,511.11,399.91,396.9,510.69,256.56,511.6Zm-50.9-220.53c-2.65-3.22-4.78-5.75-6.86-8.32q-26.67-33.07-53.33-66.14c-3.95-4.89-5.79-5.15-10.71-1.28-6.29,4.94-12.44,10.05-18.67,15.07q-18.48,14.9-37,29.79c-5,4-5.22,6-1.15,11.15,2.27,2.88,4.64,5.67,6.94,8.53q56.74,70.45,113.5,140.89c5,6.25,8.05,6.18,13,.13Q261,360.66,310.53,300.46,373.27,224.25,436,148c4.39-5.33,4.05-8.12-1.32-12.56q-25.62-21.17-51.27-42.29c-7.69-6.37-9.47-6.33-15.8,1.35Q301.34,175,235.1,255.41C225.48,267.09,215.83,278.75,205.66,291.06Z" transform="translate(-1.04 -1.04)"/>
    <path class="cls-1" d="M205.66,291.06c10.17-12.31,19.82-24,29.44-35.65Q301.37,175,367.63,94.54c6.33-7.68,8.1-7.72,15.8-1.35q25.6,21.19,51.27,42.29c5.37,4.44,5.7,7.23,1.32,12.56Q373.3,224.27,310.53,300.46,261,360.66,211.44,420.88c-5,6.05-8,6.12-13-.13q-56.78-70.42-113.5-140.89c-2.3-2.85-4.68-5.65-6.94-8.53-4.07-5.17-3.86-7.11,1.15-11.15q18.48-14.91,37-29.79c6.23-5,12.38-10.13,18.67-15.07,4.92-3.87,6.77-3.61,10.71,1.28q26.69,33.05,53.33,66.14C200.88,285.32,203,287.85,205.66,291.06Z" transform="translate(-1.04 -1.04)"/>
  </g>
</svg>
